# AST/ASF file generated using VICON BodyLanguage
# -----------------------------------------------
:version 1.10
:name VICON
:units
  mass 1.0
  length 0.45
  angle deg
:documentation
   .ast/.asf automatically generated from VICON data using
   VICON BodyBuilder and BodyLanguage model FoxedUp or BRILLIANT.MOD
:root
   order TX TY TZ RX RY RZ
   axis XYZ
   position 0 0 0  
   orientation 0 0 0 
:bonedata
  begin
     id 1 
     name lhipjoint
     direction 0.734343 -0.627749 0.258209 
     length 2.5437 
     axis 0 0 0  XYZ
  end
  begin
     id 2 
     name lfemur
     direction 0.34202 -0.939693 0  
     length 6.7391  
     axis 0 0 20  XYZ
    dof rx ry rz
    limits (-160.0 20.0)
           (-70.0 70.0)
           (-60.0 70.0)
  end
  begin
     id 3 
     name ltibia
     direction 0.34202 -0.939693 0   
     length 7.21536   
     axis 0 0 20   XYZ
    dof rx
    limits (-10.0 170.0)
  end
  begin
     id 4 
     name lfoot
     direction 0.0489572 -0.134509 0.989702   
     length 1.61313   
     axis -90 7.62852e-016 20   XYZ
    dof rx rz
    limits (-45.0 90.0)
           (-70.0 20.0)
  end
  begin
     id 5 
     name ltoes
     direction 1.53451e-011 -4.21692e-011 1   
     length 0.823104   
     axis -90 7.62852e-016 20   XYZ
    dof rx
    limits (-90.0 20.0)
  end
  begin
     id 6 
     name rhipjoint
     direction -0.746398 -0.615468 0.253157   
     length 2.59446  
     axis 0 0 0  XYZ 
  end
  begin
     id 7 
     name rfemur
     direction -0.34202 -0.939693 0   
     length 6.7075   
     axis 0 0 -20   XYZ
    dof rx ry rz
    limits (-160.0 20.0)
           (-70.0 70.0)
           (-70.0 60.0)
  end
  begin
     id 8 
     name rtibia
     direction -0.34202 -0.939693 0   
     length 7.27262   
     axis 0 0 -20   XYZ
    dof rx
    limits (-10.0 170.0)
 end
 begin
     id 9 
     name rfoot
     direction -0.0455203 -0.125066 0.991104   
     length 1.91095  
     axis -90 -7.62852e-016 -20   XYZ
    dof rx rz
    limits (-45.0 90.0)
           (-20.0 70.0)
  end
  begin
     id 10 
     name rtoes
     direction -1.53601e-011 -4.21913e-011 1   
     length 0.969037   
     axis -90 -7.62852e-016 -20   XYZ
    dof rx
    limits (-90.0 20.0)
  end
  begin
     id 11 
     name lowerback
     direction 0.0181546 0.999122 -0.0377542   
     length 1.99916   
     axis 0 0 0   XYZ
    dof rx ry rz
    limits (-20.0 45.0)
           (-30.0 30.0)
           (-30.0 30.0)
  end
  begin
     id 12 
     name upperback
     direction 0.0203486 0.99589 0.0882534   
     length 1.951   
     axis 0 0 0   XYZ
    dof rx ry rz
    limits (-20.0 45.0)
           (-30.0 30.0)
           (-30.0 30.0)
  end
  begin
     id 13 
     name thorax
     direction 0.0131685 0.994241 0.106355   
     length 1.97461   
     axis 0 0 0   XYZ
    dof rx ry rz
    limits (-20.0 45.0)
           (-30.0 30.0)
           (-30.0 30.0)
  end
  begin
     id 14 
     name lowerneck
     direction -0.0281395 0.999325 0.023617   
     length 1.7959   
     axis 0 0 0   XYZ
    dof rx ry rz
    limits (-20.0 45.0)
           (-30.0 30.0)
           (-30.0 30.0)
  end
  begin
     id 15 
     name upperneck
     direction 0.0288721 0.991984 -0.123019   
     length 1.79917   
     axis 0 0 0   XYZ
    dof rx ry rz
    limits (-20.0 45.0)
           (-30.0 30.0)
           (-30.0 30.0)
  end
  begin
     id 16
     name head
     direction 0.0133797 0.998944 -0.0439492  
     length 1.80902  
     axis 0 0 0   XYZ
    dof rx ry rz
    limits (-20.0 45.0)
           (-30.0 30.0)
           (-30.0 30.0)
  end
  begin
     id 17 
     name lclavicle
     direction 0.919195 0.377107 0.113449  
     length 3.17815  
     axis 0 0 0   XYZ
    dof ry rz
    limits (-20.0 10.0)
           (0.0 20.0)
  end
  begin
     id 18 
     name lhumerus
     direction 1 -4.48959e-011 2.13129e-027   
     length 4.84137   
     axis 180 -30 -90   XYZ
    dof rx ry rz
    limits (-60.0 90.0)
           (-90.0 90.0)
           (-90.0 90.0)
  end
  begin
     id 19
     name lradius
     direction 1 -4.48957e-011 -6.30627e-028   
     length 3.2452   
     axis 180 -30 -90   XYZ
    dof rx
    limits (-10.0 170.0)
  end
  begin
     id 20
     name lwrist
     direction 1 -4.4901e-011 9.13299e-027   
     length 1.6226   
     axis -6.84618e-015 90 90   XYZ
    dof ry
    limits (-180.0 0.0)
 end
  begin
     id 21 
     name lhand
     direction 1 -4.48816e-011 1.82293e-026   
     length 0.521221   
     axis -1.16502e-014 90 90   XYZ
    dof rx rz
    limits (-90.0 90.0)
           (-45.0 45.0)
  end
  begin
     id 22 
     name lfingers
     direction 1 -4.49108e-011 3.65687e-026   
     length 0.420221   
     axis -2.33008e-014 90 90   XYZ
    dof rx
    limits (0.0 90.0)
  end
  begin
     id 23
     name lthumb
     direction 0.707107 -6.34943e-011 0.707107   
     length 0.603356   
     axis -90 45 5.69224e-014   XYZ
    dof rx rz
    limits (-45.0 45.0)
           (-45.0 45.0)
  end
  begin
     id 24 
     name rclavicle
     direction -0.90847 0.38596 0.160368   
     length 3.12973  
     axis 0 0 0   XYZ 
    dof ry rz
    limits (-10.0 20.0)
           (-20.0 0.0)
  end
  begin
     id 25 
     name rhumerus
     direction -1 -4.48974e-011 4.47268e-028  
     length 4.72284   
     axis 180 30 90   XYZ
    dof rx ry rz
    limits (-90.0 60.0)
           (-90.0 90.0)
           (-90.0 90.0)
  end
  begin
     id 26 
     name rradius
     direction -1 -4.48969e-011 3.43203e-027   
     length 3.23459   
     axis 180 30 90   XYZ
    dof rx
    limits (-10.0 170.0)
  end
  begin
     id 27 
     name rwrist
     direction -1 -4.48969e-011 9.12911e-027   
     length 1.6173   
     axis -6.84618e-015 -90 -90   XYZ
    dof ry
    limits (-180.0 0.0)
  end
  begin
     id 28
     name rhand
     direction -1 -4.49194e-011 1.83006e-026   
     length 0.307416   
     axis -1.16502e-014 -90 -90   XYZ
    dof rx rz
    limits (-90.0 90.0)
           (-45.0 45.0)
  end
  begin
     id 29
     name rfingers
     direction -1 -4.48423e-011 3.63103e-026   
     length 0.247847   
     axis -2.33008e-014 -90 -90   XYZ
    dof rx
    limits (0.0 90.0)
  end
  begin
     id 30
     name rthumb
     direction -0.707107 -6.34802e-011 0.707107   
     length 0.35586   
     axis -90 -45 -5.69224e-014   XYZ
    dof rx rz
    limits (-45.0 45.0)
           (-45.0 45.0)
  end
:hierarchy
  begin
    root lhipjoint rhipjoint lowerback
    lhipjoint lfemur
    lfemur ltibia
    ltibia lfoot
    lfoot ltoes
    rhipjoint rfemur
    rfemur rtibia
    rtibia rfoot
    rfoot rtoes
    lowerback upperback
    upperback thorax
    thorax lowerneck lclavicle rclavicle
    lowerneck upperneck
    upperneck head
    lclavicle lhumerus
    lhumerus lradius
    lradius lwrist
    lwrist lhand lthumb
    lhand lfingers
    rclavicle rhumerus
    rhumerus rradius
    rradius rwrist
    rwrist rhand rthumb
    rhand rfingers
  end

#!OML:ASF H:\Terrain\Patient Classification 1\Animal1\Tuesday\Animal1.ASF
:FULLY-SPECIFIED
:DEGREES
847
root 11.978 16.2498 -10.7133 32.9262 20.5284 -7.4303
lowerback 41.5447 3.2248 3.86109
upperback 9.85478 4.18228 -11.0856
thorax -8.31532 2.24747 -16.1746
lowerneck -8.87998 -3.5769 13.7633
upperneck -9.52814 -4.96029 12.8948
head -1.60241 -3.03874 1.82105
rclavicle -3.45885e-014 1.00038e-013
rhumerus 22.914 29.3117 -53.4215
rradius 33.113
rwrist -20.4873
rhand -23.5949 29.8562
rfingers 7.12502
rthumb 2.86857 -0.104213
lclavicle -3.45885e-014 1.00038e-013
lhumerus 56.9659 -43.8255 26.6379
lradius 38.8301
lwrist -17.6029
lhand -1.60242 43.3138
lfingers 7.12502
lthumb 24.0547 71.8263
rfemur -57.5642 -0.0973969 20.7271
rtibia 39.3938
rfoot 2.14158 -23.6948
rtoes -3.76905
lfemur -62.2259 -2.07966 -3.8561
ltibia 36.2102
lfoot -9.68395 4.45624
ltoes -9.784
848
root 11.9975 16.2573 -10.6981 32.5318 20.5454 -7.67096
lowerback 41.8665 3.15834 4.35051
upperback 9.47081 4.21259 -11.4683
thorax -8.82021 2.2087 -17.0005
lowerneck -8.42297 -3.75914 13.9026
upperneck -9.55488 -5.08703 13.308
head -1.68412 -3.1277 1.94875
rclavicle -3.4191e-014 -1.78906e-015
rhumerus 21.6348 28.818 -55.1888
rradius 32.8466
rwrist -19.8652
rhand -21.6361 29.1854
rfingers 7.12502
rthumb 4.76018 -0.741083
lclavicle -3.4191e-014 -1.78906e-015
lhumerus 56.9031 -44.7774 26.1141
lradius 38.7939
lwrist -17.7015
lhand -1.25652 43.6273
lfingers 7.12502
lthumb 24.3863 72.0956
rfemur -57.3168 -0.144657 20.9353
rtibia 39.5968
rfoot 1.14228 -23.61
rtoes 0.183748
lfemur -61.7873 -2.11174 -3.68707
ltibia 36.2334
lfoot -9.73845 4.31137
ltoes -6.62446
849
root 12.0152 16.2706 -10.679 32.1681 20.5809 -7.79653
lowerback 42.1354 3.0793 4.76222
upperback 9.18394 4.20925 -11.8456
thorax -9.21462 2.16329 -17.7603
lowerneck -8.22113 -3.9243 14.0085
upperneck -9.44317 -5.25524 13.786
head -1.67344 -3.21421 2.09284
rclavicle 2.62396e-014 -5.15598e-014
rhumerus 20.381 28.6316 -56.1905
rradius 33.1941
rwrist -19.9809
rhand -22.2017 29.8796
rfingers 7.12502
rthumb 4.21401 -0.0585113
lclavicle 2.62396e-014 -5.15598e-014
lhumerus 56.737 -45.6315 26.0051
lradius 38.62
lwrist -18.1767
lhand -1.29652 43.6959
lfingers 7.12502
lthumb 24.348 72.1693
rfemur -57.0823 -0.305446 21.1389
rtibia 39.8248
rfoot 1.42354 -23.3807
rtoes 2.03874
lfemur -61.3424 -2.22822 -3.60012
ltibia 36.2574
lfoot -9.87344 4.25458
ltoes -5.24498
850
root 12.0351 16.2771 -10.6618 31.9221 20.6096 -7.80685
lowerback 42.1877 2.98111 5.12341
upperback 9.01218 4.17934 -12.1911
thorax -9.4233 2.12279 -18.4229
lowerneck -8.5619 -4.10227 14.0699
upperneck -8.89168 -5.61896 14.3546
head -1.4172 -3.33234 2.24239
rclavicle 6.1822e-014 -6.68165e-014
rhumerus 19.6853 28.1191 -57.3802
rradius 32.8762
rwrist -19.8193
rhand -22.3165 30.3747
rfingers 7.12502
rthumb 4.10311 0.434479
lclavicle 6.1822e-014 -6.68165e-014
lhumerus 57.125 -46.3233 24.9254
lradius 38.8052
lwrist -17.9148
lhand -1.57778 43.6942
lfingers 7.12502
lthumb 24.0783 72.2035
rfemur -57.0253 -0.601653 21.3251
rtibia 40.1763
rfoot 2.37895 -23.0406
rtoes 1.67434
lfemur -60.9994 -2.36828 -3.68102
ltibia 36.2406
lfoot -9.86491 4.43533
ltoes -6.44443
851
root 12.0564 16.2873 -10.6513 31.681 20.68 -7.74473
lowerback 42.3009 2.82432 5.56393
upperback 8.78772 4.10543 -12.5526
thorax -9.72503 2.04653 -19.1549
lowerneck -8.4707 -4.33033 14.2649
upperneck -8.76894 -5.90895 14.8296
head -1.38403 -3.47627 2.36854
rclavicle -8.93537e-014 1.75651e-013
rhumerus 18.8809 27.4844 -58.7861
rradius 32.4044
rwrist -19.4153
rhand -22.1074 30.0519
rfingers 7.12502
rthumb 4.30501 0.115643
lclavicle -8.93537e-014 1.75651e-013
lhumerus 58.1502 -47.0368 22.5429
lradius 39.357
lwrist -16.7177
lhand -1.42797 44.0366
lfingers 7.12502
lthumb 24.2219 72.5268
rfemur -57.0137 -0.946239 21.4313
rtibia 40.6702
rfoot 2.16351 -22.8785
rtoes 4.11861
lfemur -60.6669 -2.53408 -3.87422
ltibia 36.1763
lfoot -9.74197 4.50228
ltoes -7.14424
852
root 12.0756 16.2991 -10.643 31.5474 20.8171 -7.65071
lowerback 42.3957 2.62949 6.09105
upperback 8.46055 4.01044 -12.935
thorax -10.1477 1.93451 -19.983
lowerneck -7.87193 -4.56455 14.391
upperneck -8.9998 -6.0318 15.2973
head -1.55433 -3.59222 2.53473
rclavicle 1.65488e-013 -1.56791e-013
rhumerus 17.6564 27.1266 -60.113
rradius 32.2878
rwrist -19.1775
rhand -22.3827 29.7536
rfingers 7.12502
rthumb 4.03925 -0.187844
lclavicle 1.65488e-013 -1.56791e-013
lhumerus 57.4765 -48.0695 22.65
lradius 39.3747
lwrist -17.3587
lhand -1.22852 43.8422
lfingers 7.12502
lthumb 24.4132 72.3068
rfemur -57.1659 -1.42575 21.5892
rtibia 41.2968
rfoot 1.42095 -22.6088
rtoes 9.40034
lfemur -60.4646 -2.71868 -4.0402
ltibia 36.075
lfoot -9.792 4.43853
ltoes -5.42753
853
root 12.0895 16.294 -10.6313 31.4709 20.8371 -7.50587
lowerback 42.4553 2.52266 6.40244
upperback 8.18007 3.93875 -13.2881
thorax -10.5122 1.83976 -20.6561
lowerneck -7.49019 -4.74844 14.2899
upperneck -8.92945 -6.16366 15.8607
head -1.57467 -3.6663 2.75237
rclavicle -1.25234e-014 1.16811e-013
rhumerus 16.6912 27.0738 -61.0052
rradius 32.2924
rwrist -19.342
rhand -22.5642 30.1587
rfingers 7.12502
rthumb 3.86398 0.213997
lclavicle -1.25234e-014 1.16811e-013
lhumerus 57.862 -48.8572 21.5356
lradius 39.4613
lwrist -17.1364
lhand -0.840191 43.8645
lfingers 7.12502
lthumb 24.7854 72.2784
rfemur -57.4314 -1.81823 21.6422
rtibia 41.9549
rfoot 1.46983 -22.2477
rtoes 11.1383
lfemur -60.2971 -2.86564 -4.23194
ltibia 36.0035
lfoot -9.8315 4.46436
ltoes -3.91427
854
root 12.1019 16.2905 -10.617 31.2418 20.7065 -7.10402
lowerback 42.71 2.48696 6.25992
upperback 8.08457 3.79185 -13.5591
thorax -10.773 1.74673 -20.8988
lowerneck -7.66033 -4.78893 14.2613
upperneck -8.58021 -6.29835 16.0691
head -1.41831 -3.68674 2.80791
rclavicle 2.78795e-014 1.22004e-013
rhumerus 16.3149 27.1738 -61.2659
rradius 32.3171
rwrist -19.6017
rhand -22.234 30.5533
rfingers 7.12502
rthumb 4.18285 0.614596
lclavicle 2.78795e-014 1.22004e-013
lhumerus 58.8585 -49.2104 19.7644
lradius 39.7041
lwrist -16.1897
lhand -0.749884 44.1007
lfingers 7.12502
lthumb 24.8719 72.5027
rfemur -57.4253 -2.24878 21.4306
rtibia 42.5709
rfoot 1.39222 -22.0385
rtoes 11.4172
lfemur -59.8641 -2.97033 -4.8754
ltibia 36.0087
lfoot -9.72178 4.34837
ltoes -4.43254
855
root 12.1191 16.2975 -10.5988 30.9967 20.5687 -6.85518
lowerback 42.7145 2.48549 6.16892
upperback 8.08368 3.71937 -13.7941
thorax -10.815 1.71306 -21.1288
lowerneck -8.09065 -4.75389 14.5367
upperneck -8.25813 -6.41623 15.9896
head -1.24885 -3.69587 2.71101
rclavicle 4.31549e-014 -4.68542e-014
rhumerus 16.0834 27.0573 -61.6602
rradius 32.336
rwrist -19.7825
rhand -22.0925 30.3777
rfingers 7.12502
rthumb 4.31944 0.441782
lclavicle 4.31549e-014 -4.68542e-014
lhumerus 59.5412 -49.4466 18.3815
lradius 39.8418
lwrist -15.6989
lhand -0.92934 43.7929
lfingers 7.12502
lthumb 24.6999 72.2185
rfemur -57.3339 -2.73276 21.4607
rtibia 43.0525
rfoot 0.608372 -21.7512
rtoes 13.3379
lfemur -59.44 -2.91332 -5.44796
ltibia 36.123
lfoot -9.89194 4.1282
ltoes -5.70029
856
root 12.1289 16.2946 -10.583 30.6156 20.8159 -6.91778
lowerback 42.9249 2.25915 6.76415
upperback 7.91814 3.64199 -14.0817
thorax -11.0921 1.61985 -21.904
lowerneck -7.71981 -4.92009 14.8137
upperneck -8.35372 -6.53656 16.2472
head -1.34607 -3.79027 2.77311
rclavicle 6.47665e-014 1.4182e-014
rhumerus 15.5557 25.8618 -63.739
rradius 31.438
rwrist -18.5531
rhand -22.1643 30.6398
rfingers 7.12502
rthumb 4.25015 0.702483
lclavicle 6.47665e-014 1.4182e-014
lhumerus 59.8351 -50.1328 17.3944
lradius 39.8922
lwrist -15.9043
lhand -0.761591 43.546
lfingers 7.12502
lthumb 24.8607 71.9496
rfemur -57.1302 -3.07226 21.7319
rtibia 43.3588
rfoot -0.25063 -21.7028
rtoes 14.7075
lfemur -59.1488 -3.23541 -5.25907
ltibia 36.3167
lfoot -10.1904 4.12089
ltoes -5.65538
857
root 12.1485 16.2854 -10.5672 30.1875 21.0618 -7.0379
lowerback 43.1206 1.95323 7.59024
upperback 7.76025 3.56931 -14.365
thorax -11.3476 1.51859 -22.8363
lowerneck -6.99188 -5.1971 14.8006
upperneck -8.6735 -6.6608 16.6893
head -1.56317 -3.9236 2.9668
rclavicle 1.92324e-014 7.6296e-014
rhumerus 14.5452 26.1928 -63.9656
rradius 32.0418
rwrist -19.1999
rhand -21.8469 31.1875
rfingers 7.12502
rthumb 4.55658 1.25656
lclavicle 1.92324e-014 7.6296e-014
lhumerus 59.7744 -50.9352 16.8274
lradius 40.1028
lwrist -16.1567
lhand -0.721578 43.6244
lfingers 7.12502
lthumb 24.899 72.0227
rfemur -56.8686 -3.37757 21.9512
rtibia 43.5265
rfoot -0.457389 -21.5959
rtoes 14.6527
lfemur -58.9123 -3.85898 -4.84654
ltibia 36.5846
lfoot -10.2919 4.51931
ltoes -4.87264
858
root 12.1654 16.2847 -10.5513 29.8182 21.2108 -7.20655
lowerback 43.1548 1.73793 8.23148
upperback 7.69262 3.5458 -14.5728
thorax -11.4316 1.4682 -23.5536
lowerneck -6.73825 -5.35345 15.0078
upperneck -8.83382 -6.77873 16.8796
head -1.6631 -4.01915 3.01838
rclavicle -2.65874e-014 3.56322e-014
rhumerus 14.2038 25.6044 -65.0481
rradius 31.5138
rwrist -18.1237
rhand -22.3168 31.6817
rfingers 7.12502
rthumb 4.10287 1.7415
lclavicle -2.65874e-014 3.56322e-014
lhumerus 60.1038 -51.4649 15.7648
lradius 40.3916
lwrist -16.1005
lhand -1.10198 43.4415
lfingers 7.12502
lthumb 24.5345 71.8897
rfemur -56.642 -3.67256 22.2808
rtibia 43.6055
rfoot -0.413172 -21.3397
rtoes 13.8778
lfemur -58.6974 -3.85587 -4.8437
ltibia 36.8509
lfoot -10.3373 4.3792
ltoes -4.7703
859
root 12.1746 16.2762 -10.5418 29.7416 21.394 -7.13304
lowerback 43.0202 1.52843 8.69481
upperback 7.60481 3.44412 -14.8049
thorax -11.5288 1.38033 -24.1551
lowerneck -6.65213 -5.42329 15.2777
upperneck -8.81369 -6.85055 17.0326
head -1.67756 -4.06364 3.03403
rclavicle 8.46823e-014 -1.11071e-014
rhumerus 13.9493 24.8856 -66.3328
rradius 30.8329
rwrist -16.6642
rhand -23.6139 31.4259
rfingers 7.12502
rthumb 2.85027 1.4652
lclavicle 8.46823e-014 -1.11071e-014
lhumerus 60.6344 -51.902 14.5512
lradius 40.5057
lwrist -16.2367
lhand -1.2343 43.1321
lfingers 7.12502
lthumb 24.4076 71.5974
rfemur -56.7289 -3.95534 22.3248
rtibia 43.6395
rfoot -1.34246 -21.4505
rtoes 13.5104
lfemur -58.717 -3.6962 -5.19686
ltibia 37.0115
lfoot -10.3435 4.01103
ltoes -5.89107
860
root 12.1773 16.2699 -10.5321 29.63 21.4764 -6.75935
lowerback 43.0942 1.35231 8.82664
upperback 7.56659 3.25008 -15.038
thorax -11.6915 1.26014 -24.5072
lowerneck -6.61528 -5.52136 15.2353
upperneck -8.74066 -6.97132 17.2431
head -1.64815 -4.11654 3.11198
rclavicle 4.58199e-014 -3.52843e-014
rhumerus 13.7594 23.9295 -67.4111
rradius 30.348
rwrist -15.836
rhand -23.163 31.2414
rfingers 7.12502
rthumb 3.28573 1.28699
lclavicle 4.58199e-014 -3.52843e-014
lhumerus 60.6746 -52.1824 14.0216
lradius 40.5772
lwrist -16.5414
lhand -1.05815 43.3463
lfingers 7.12502
lthumb 24.5765 71.7888
rfemur -56.7155 -4.11218 21.9268
rtibia 43.6362
rfoot -2.59895 -21.9277
rtoes 14.6161
lfemur -58.5149 -3.76784 -5.75144
ltibia 37.0539
lfoot -10.3696 3.79228
ltoes -6.52461
861
root 12.1822 16.2814 -10.5096 28.9934 21.3951 -6.45468
lowerback 43.6938 1.21642 8.85703
upperback 7.61985 3.08437 -15.262
thorax -11.9073 1.1657 -24.8139
lowerneck -6.56931 -5.64547 15.1641
upperneck -8.68201 -7.12428 17.4531
head -1.62278 -4.18773 3.19506
rclavicle -9.58142e-014 1.57487e-013
rhumerus 13.5413 23.5124 -67.8627
rradius 30.3913
rwrist -16.3743
rhand -21.7531 31.34
rfingers 7.12502
rthumb 4.64717 1.411
lclavicle -9.58142e-014 1.57487e-013
lhumerus 60.9875 -52.3948 13.0844
lradius 40.6732
lwrist -16.4919
lhand -1.03401 43.525
lfingers 7.12502
lthumb 24.5996 71.9643
rfemur -56.0179 -4.09066 21.4679
rtibia 43.5001
rfoot -4.082 -22.5123
rtoes 18.0313
lfemur -57.5936 -4.00997 -6.18828
ltibia 37.0468
lfoot -10.5364 3.77863
ltoes -6.12584
